<svg width="40" height="30" viewBox="0 0 40 30" fill="none" xmlns="http://www.w3.org/2000/svg">
<g clip-path="url(#clip0_140_2)">
<path d="M0.00634766 0H40.0063V30H0.00634766V0Z" fill="#3F9C35"/>
<path d="M0.00634766 0H40.0063V20H0.00634766V0Z" fill="#ED2939"/>
<path d="M0.00634766 0H40.0063V10H0.00634766V0Z" fill="#00B9E4"/>
<path d="M19 19.5C21.4853 19.5 23.5 17.4853 23.5 15C23.5 12.5147 21.4853 10.5 19 10.5C16.5147 10.5 14.5 12.5147 14.5 15C14.5 17.4853 16.5147 19.5 19 19.5Z" fill="white"/>
<path d="M20 18.75C22.0711 18.75 23.75 17.0711 23.75 15C23.75 12.9289 22.0711 11.25 20 11.25C17.9289 11.25 16.25 12.9289 16.25 15C16.25 17.0711 17.9289 18.75 20 18.75Z" fill="#ED2939"/>
<path d="M24 12.5L24.4813 13.8438L25.7687 13.2312L25.1562 14.525L26.5 15L25.1562 15.4812L25.7687 16.7687L24.4813 16.1562L24 17.5L23.5187 16.1562L22.2313 16.7687L22.8438 15.4812L21.5 15L22.8438 14.5188L22.2313 13.2312L23.5187 13.8438L24 12.5Z" fill="white"/>
</g>
<defs>
<clipPath id="clip0_140_2">
<rect width="40" height="30" fill="white"/>
</clipPath>
</defs>
</svg>
